<?xml version="1.0" encoding="UTF-8" standalone="no"?>
<svg
   fill="#ffffff"
   width="120px"
   height="120px"
   viewBox="0 0 32 32"
   version="1.1"
   stroke="#ffffff"
   id="svg1"
   sodipodi:docname="gear.svg"
   inkscape:version="1.4 (86a8ad7, 2024-10-11)"
   xmlns:inkscape="http://www.inkscape.org/namespaces/inkscape"
   xmlns:sodipodi="http://sodipodi.sourceforge.net/DTD/sodipodi-0.dtd"
   xmlns="http://www.w3.org/2000/svg"
   xmlns:svg="http://www.w3.org/2000/svg">
  <defs
     id="defs1" />
  <sodipodi:namedview
     id="namedview1"
     pagecolor="#ffffff"
     bordercolor="#000000"
     borderopacity="0.25"
     inkscape:showpageshadow="2"
     inkscape:pageopacity="0.0"
     inkscape:pagecheckerboard="0"
     inkscape:deskcolor="#d1d1d1"
     inkscape:zoom="6.725"
     inkscape:cx="60"
     inkscape:cy="60"
     inkscape:window-width="1920"
     inkscape:window-height="1009"
     inkscape:window-x="1352"
     inkscape:window-y="-8"
     inkscape:window-maximized="1"
     inkscape:current-layer="svg1" />
  <g
     id="SVGRepo_bgCarrier"
     stroke-width="0"
     style="display:inline" />
  <g
     id="SVGRepo_tracerCarrier"
     stroke-linecap="round"
     stroke-linejoin="round"
     style="display:inline" />
  <g
     id="SVGRepo_iconCarrier"
     style="display:inline;fill:#ffffff;stroke:#ffffff"
     transform="matrix(1.0492293,0,0,1.0493034,-0.78715364,-0.78569707)">
    <title
       id="title1">gear</title>
    <path
       d="m 29,12.256 h -1.88 c -0.198,-0.585 -0.405,-1.072 -0.643,-1.541 l 0.031,0.067 1.338,-1.324 c 0.35,-0.3 0.57,-0.742 0.57,-1.236 0,-0.406 -0.149,-0.778 -0.396,-1.063 L 28.022,7.161 24.844,3.983 C 24.561,3.737 24.19,3.588 23.783,3.588 c -0.494,0 -0.937,0.221 -1.234,0.57 L 22.547,4.16 21.215,5.49 C 20.813,5.284 20.327,5.077 19.825,4.904 l -0.082,-0.025 0.009,-1.88 c 0.003,-0.04 0.005,-0.086 0.005,-0.133 0,-0.854 -0.66,-1.554 -1.498,-1.617 h -0.005 -4.496 c -0.844,0.063 -1.505,0.763 -1.505,1.617 0,0.047 0.002,0.093 0.006,0.139 V 2.999 4.878 c -0.585,0.198 -1.071,0.404 -1.54,0.641 L 10.786,5.488 9.462,4.152 C 9.163,3.8 8.72,3.579 8.226,3.579 7.819,3.579 7.448,3.729 7.163,3.976 L 7.165,3.974 3.986,7.153 C 3.74,7.436 3.59,7.808 3.59,8.214 c 0,0.494 0.221,0.937 0.57,1.234 L 4.162,9.45 5.491,10.779 C 5.284,11.182 5.077,11.67 4.904,12.174 L 4.88,12.256 3,12.247 C 2.96,12.244 2.914,12.242 2.867,12.242 c -0.854,0 -1.554,0.661 -1.617,1.499 v 0.005 4.495 c 0.062,0.844 0.763,1.505 1.617,1.505 0.047,0 0.093,-0.002 0.139,-0.006 H 3 4.88 c 0.198,0.585 0.404,1.072 0.642,1.541 l -0.03,-0.066 -1.335,1.32 c -0.351,0.3 -0.572,0.744 -0.572,1.239 0,0.407 0.149,0.779 0.396,1.064 l -0.002,-0.002 3.179,3.178 c 0.249,0.246 0.591,0.399 0.97,0.399 0.007,0 0.014,0 0.021,0 H 8.148 C 8.663,28.4 9.125,28.182 9.456,27.837 l 0.001,-0.001 1.33,-1.33 c 0.403,0.207 0.891,0.414 1.395,0.587 l 0.082,0.025 -0.009,1.878 c -0.003,0.04 -0.005,0.086 -0.005,0.132 0,0.854 0.661,1.555 1.499,1.617 h 0.005 4.496 c 0.843,-0.064 1.503,-0.763 1.503,-1.617 0,-0.047 -0.002,-0.093 -0.006,-0.139 v 0.006 -1.881 c 0.585,-0.198 1.073,-0.405 1.543,-0.643 l -0.067,0.031 1.321,1.333 c 0.332,0.344 0.793,0.562 1.304,0.574 h 0.002 0.002 c 0.006,0 0.013,0 0.019,0 0.378,0 0.72,-0.151 0.971,-0.395 l 3.177,-3.177 c 0.244,-0.249 0.395,-0.591 0.395,-0.968 0,-0.009 0,-0.017 0,-0.026 v 0.001 C 28.402,23.331 28.185,22.871 27.842,22.54 L 27.841,22.539 26.51,21.207 c 0.206,-0.401 0.412,-0.887 0.586,-1.389 L 27.121,19.735 29,19.744 c 0.04,0.003 0.086,0.005 0.132,0.005 0.855,0 1.555,-0.661 1.617,-1.5 v -0.005 -4.495 c -0.063,-0.844 -0.763,-1.504 -1.618,-1.504 -0.047,0 -0.093,0.002 -0.138,0.006 h 0.006 z m 0.004,5.994 -2.416,-0.012 c -0.02,0 -0.037,0.01 -0.056,0.011 -0.198,0.024 -0.372,0.115 -0.501,0.249 v 0 c -0.055,0.072 -0.103,0.153 -0.141,0.24 l -0.003,0.008 c -0.005,0.014 -0.016,0.024 -0.02,0.039 -0.24,0.844 -0.553,1.579 -0.944,2.264 L 24.949,21 c -0.054,0.1 -0.086,0.218 -0.086,0.344 0,10e-4 0,0.003 0,0.004 v 0 c 0,0.016 0.003,0.028 0.004,0.045 0.006,0.187 0.08,0.355 0.199,0.481 v 0 l 0.009,0.023 1.707,1.709 c 0.109,0.109 0.137,0.215 0.176,0.176 l -3.102,3.133 c -0.099,-0.013 -0.186,-0.061 -0.248,-0.13 v 0 l -1.697,-1.713 c -0.008,-0.009 -0.022,-0.005 -0.03,-0.013 -0.121,-0.112 -0.28,-0.183 -0.456,-0.193 h -0.002 c -0.02,-0.003 -0.044,-0.005 -0.068,-0.006 h -0.001 c -0.125,0 -0.243,0.032 -0.345,0.088 l 0.004,-0.002 c -0.636,0.362 -1.373,0.676 -2.146,0.903 l -0.074,0.019 c -0.015,0.004 -0.025,0.015 -0.039,0.02 -0.096,0.042 -0.179,0.092 -0.255,0.149 l 0.003,-0.002 c -0.035,0.034 -0.066,0.071 -0.093,0.11 l -0.002,0.002 c -0.027,0.033 -0.053,0.07 -0.075,0.11 l -0.002,0.004 c -0.033,0.081 -0.059,0.175 -0.073,0.274 l -0.001,0.007 c -0.001,0.016 -0.01,0.031 -0.01,0.047 v 2.412 c 0,0.15 -0.055,0.248 0,0.25 l -4.41,0.023 c -0.052,-0.067 -0.084,-0.153 -0.084,-0.246 0,-0.008 0,-0.016 10e-4,-0.024 v 10e-4 l 0.012,-2.412 c 0,-0.017 -0.008,-0.032 -0.01,-0.048 -0.005,-0.053 -0.015,-0.102 -0.03,-0.149 l 0.001,0.005 c -0.012,-0.053 -0.028,-0.1 -0.048,-0.145 l 0.002,0.005 c -0.052,-0.086 -0.109,-0.16 -0.173,-0.227 v 0 C 13.478,26.01 13.445,25.988 13.411,25.968 L 13.407,25.966 C 13.363,25.936 13.314,25.91 13.261,25.89 l -0.005,-0.002 c -0.014,-0.005 -0.024,-0.016 -0.039,-0.02 -0.847,-0.241 -1.585,-0.554 -2.272,-0.944 l 0.051,0.026 C 10.897,24.896 10.78,24.864 10.655,24.864 v 0 c -0.022,-0.001 -0.04,0.004 -0.062,0.005 -0.18,0.008 -0.342,0.08 -0.465,0.193 h 10e-4 C 10.121,25.07 10.108,25.066 10.1,25.074 L 8.395,26.779 C 8.288,26.886 8.179,26.918 8.217,26.957 L 5.083,23.856 c 0.012,-0.1 0.06,-0.187 0.13,-0.25 v 0 L 6.927,21.911 6.938,21.885 C 7.053,21.762 7.127,21.599 7.135,21.419 V 21.417 C 7.136,21.396 7.14,21.38 7.14,21.359 c 0,-0.001 0,-0.002 0,-0.003 0,-0.126 -0.032,-0.245 -0.088,-0.348 l 0.002,0.004 C 6.689,20.376 6.375,19.641 6.151,18.867 L 6.133,18.795 C 6.129,18.78 6.117,18.769 6.112,18.754 6.07,18.66 6.022,18.578 5.966,18.504 l 0.002,0.003 C 5.903,18.446 5.832,18.39 5.756,18.342 L 5.75,18.339 C 5.699,18.314 5.641,18.294 5.579,18.282 L 5.574,18.281 C 5.545,18.272 5.509,18.265 5.472,18.26 H 5.468 C 5.448,18.258 5.431,18.248 5.41,18.248 H 2.998 C 2.846,18.25 2.75,18.193 2.748,18.246 L 2.726,13.837 c 0.067,-0.052 0.151,-0.084 0.244,-0.084 0.009,0 0.017,0 0.026,10e-4 H 2.995 l 2.416,0.012 C 5.563,13.762 5.703,13.712 5.818,13.63 L 5.816,13.632 C 5.84,13.618 5.86,13.604 5.88,13.589 L 5.878,13.59 c 0.109,-0.088 0.191,-0.206 0.235,-0.341 l 10e-4,-0.005 c 0.003,-0.01 0.014,-0.014 0.017,-0.025 0.242,-0.847 0.555,-1.583 0.946,-2.27 l -0.026,0.05 c 0.054,-0.1 0.086,-0.218 0.086,-0.344 0,-10e-4 0,-10e-4 0,-0.002 v 0 C 7.138,10.634 7.134,10.62 7.133,10.601 7.126,10.417 7.053,10.251 6.936,10.126 v 0 L 6.926,10.102 5.221,8.397 C 5.113,8.287 5.079,8.176 5.045,8.219 L 8.147,5.085 c 0.101,0.008 0.189,0.058 0.248,0.131 l 0.001,10e-4 1.697,1.713 c 0.018,0.018 0.046,0.011 0.065,0.027 0.125,0.121 0.295,0.196 0.483,0.196 0.13,0 0.251,-0.036 0.355,-0.098 L 10.993,7.057 C 11.629,6.693 12.365,6.38 13.138,6.155 L 13.21,6.137 c 0.014,-0.004 0.024,-0.015 0.038,-0.019 0.057,-0.021 0.105,-0.047 0.151,-0.077 l -0.003,0.002 c 0.163,-0.09 0.281,-0.244 0.321,-0.427 l 10e-4,-0.004 c 0.014,-0.043 0.025,-0.093 0.03,-0.145 V 5.464 c 0.001,-0.016 0.009,-0.03 0.009,-0.046 V 3.006 c 0,-0.151 0.056,-0.249 10e-4,-0.25 l 4.41,-0.023 c 0.052,0.067 0.083,0.152 0.083,0.245 0,0.009 0,0.017 -0.001,0.026 V 3.003 l -0.012,2.412 c 0,0.016 0.008,0.03 0.009,0.047 0.005,0.055 0.015,0.106 0.031,0.155 L 18.277,5.612 c 0.071,0.234 0.243,0.419 0.464,0.506 l 0.005,0.002 c 0.014,0.005 0.025,0.016 0.039,0.02 0.845,0.242 1.58,0.555 2.265,0.945 L 21,7.059 c 0.105,0.06 0.231,0.096 0.366,0.096 0,0 0.001,0 0.001,0 v 0 C 21.55,7.147 21.714,7.073 21.838,6.957 v 0 c 0.017,-0.015 0.043,-0.008 0.059,-0.024 l 1.709,-1.705 c 0.105,-0.106 0.213,-0.137 0.176,-0.176 l 3.133,3.102 c -0.012,0.1 -0.059,0.186 -0.129,0.249 v 0 L 25.071,10.1 25.06,10.126 c -0.116,0.123 -0.19,0.287 -0.198,0.468 v 0.002 c -10e-4,0.02 -0.005,0.036 -0.005,0.056 0,0.001 0,0.002 0,0.003 0,0.126 0.032,0.245 0.088,0.348 l -0.002,-0.004 c 0.365,0.636 0.679,1.371 0.902,2.144 l 0.018,0.071 c 0.003,0.012 0.016,0.017 0.019,0.028 0.046,0.137 0.127,0.253 0.232,0.339 l 10e-4,0.001 c 0.019,0.015 0.041,0.03 0.063,0.043 l 0.003,0.002 c 0.112,0.08 0.252,0.13 0.402,0.134 h 0.001 2.412 c 0.152,-10e-4 0.248,0.057 0.25,0.001 l 0.021,4.409 c -0.065,0.053 -0.149,0.085 -0.24,0.085 -0.01,0 -0.019,0 -0.029,-0.001 h 10e-4 z M 16,11.25 c -2.623,0 -4.75,2.127 -4.75,4.75 0,2.623 2.127,4.75 4.75,4.75 2.623,0 4.75,-2.127 4.75,-4.75 v 0 C 20.747,13.378 18.622,11.253 16,11.25 Z m 0,8 c -1.795,0 -3.25,-1.455 -3.25,-3.25 0,-1.795 1.455,-3.25 3.25,-3.25 1.795,0 3.25,1.455 3.25,3.25 v 0 c -0.002,1.794 -1.456,3.248 -3.25,3.25 z"
       id="path1"
       style="display:inline;fill:#ffffff;stroke:#ffffff" />
  </g>
</svg>
